<?xml version="1.0" encoding="utf-8"?>
<!-- Generator: Adobe Illustrator 16.0.0, SVG Export Plug-In . SVG Version: 6.00 Build 0)  -->
<!DOCTYPE svg PUBLIC "-//W3C//DTD SVG 1.1//EN" "http://www.w3.org/Graphics/SVG/1.1/DTD/svg11.dtd">
<svg version="1.1" id="Layer_1" xmlns="http://www.w3.org/2000/svg" xmlns:xlink="http://www.w3.org/1999/xlink" x="0px" y="0px"
	 width="612px" height="140px" viewBox="0 0 612 140" enable-background="new 0 0 612 140" xml:space="preserve">
<g>
	<path fill="#FFFFFF" d="M232,1c127.597,0,255.192,0,382.895,0c0,46.57,0,93.141,0,140c-127.562,0-255.228,0-382.895,0
		c-0.109-1.151-0.314-2.302-0.314-3.453c-0.017-44.366-0.017-88.732,0-133.1C231.686,3.298,231.891,2.149,232,1z M534.844,45.144
		c2.38,0,4.192,0.003,6.005,0c13.323-0.022,26.651,0.118,39.968-0.207c2.714-0.066,6.492-1.107,7.862-3.052
		c3.681-5.221,3.148-11.509,0.994-17.218c-1.862-4.937-6.811-4.705-11.153-4.718c-18.486-0.052-36.974-0.079-55.461,0
		c-11.115,0.047-13.684,2.766-13.688,14.053c-0.01,25.649-0.006,51.298,0.003,76.946c0.001,1.496-0.01,3.003,0.156,4.486
		c0.664,5.931,2.917,8.261,8.849,8.749c4.14,0.341,8.311,0.444,12.467,0.427c17.147-0.075,34.299-0.07,51.437-0.549
		c2.494-0.07,6.014-1.986,7.192-4.093c6.028-10.769,0.158-20.674-11.955-20.749c-12.491-0.077-24.982-0.009-37.474-0.03
		c-1.751-0.003-3.502-0.15-5.118-0.226c0-4.893,0-9.166,0-13.75c1.897-0.084,3.527-0.212,5.157-0.217
		c7.994-0.024,15.99,0.078,23.982-0.057c4.048-0.068,8.051-0.56,10.074-4.977c5.164-11.277-0.168-20.053-12.333-20.204
		c-4.163-0.052-8.327-0.01-12.491-0.01c-4.766,0-9.532,0-14.473,0C534.844,54.643,534.844,50.205,534.844,45.144z M440.739,89.78
		c-2.515-5.404-4.565-9.757-6.57-14.131c-7.269-15.854-14.419-31.762-21.868-47.528c-1.425-3.017-3.505-7.048-6.153-7.898
		c-6.554-2.105-12.319,1.168-17.029,5.817c-3.991,3.94-1.63,8.071,0.268,11.939c12.731,25.95,25.571,51.847,38.285,77.806
		c2.675,5.46,6.632,8.432,12.86,8.524c6.503,0.096,10.545-3.094,13.27-8.693c6.324-12.997,12.761-25.94,19.143-38.91
		c6.454-13.118,12.928-26.227,19.329-39.37c1.773-3.641,3.868-8.05,0.03-10.974c-3.909-2.978-8.791-4.948-13.531-6.484
		c-4.088-1.325-6.849,1.313-8.499,5.095c-2.058,4.715-4.223,9.383-6.358,14.062C456.344,55.621,448.767,72.204,440.739,89.78z
		 M281.074,103.367c0-2.333,0-4.118,0-5.903c0-21.828,0.02-43.657-0.008-65.485c-0.012-8.939-2.617-11.643-11.489-12
		c-1.654-0.066-3.338,0.049-4.978,0.29c-6.322,0.931-7.862,2.75-7.864,9.202c-0.008,28.327-0.005,56.654-0.002,84.981
		c0,7.264,1.624,9.487,8.797,9.723c13.146,0.432,26.31,0.393,39.467,0.433c5.99,0.018,11.983-0.188,17.972-0.397
		c4.915-0.171,7.133-2.997,7.191-7.742c0.022-1.833,0.069-3.669-0.014-5.498c-0.192-4.252-2.192-6.951-6.675-7.154
		c-4.987-0.226-9.98-0.392-14.973-0.43C299.542,103.318,290.585,103.367,281.074,103.367z M371.916,72.456
		c0-13.993,0.21-27.991-0.172-41.974c-0.079-2.919-1.554-6.982-3.756-8.424c-5.111-3.345-11.278-3.003-16.794-0.537
		c-5.033,2.251-4.438,7.347-4.444,11.816c-0.037,25.652-0.024,51.306-0.007,76.959c0.002,1.995,0.149,3.992,0.281,5.984
		c0.312,4.752,3.144,7.176,7.603,7.824c2.118,0.308,4.312,0.375,6.449,0.233c8.632-0.573,10.818-2.887,10.84-11.404
		C371.95,99.441,371.925,85.948,371.916,72.456z"/>
	<path fill-rule="evenodd" clip-rule="evenodd" fill="#FFFFFF" d="M157.478,88.739c-8.702,9.967-17.223,19.745-25.773,29.499
		c-1.314,1.5-2.699,2.95-4.159,4.308c-3.532,3.28-7.316,3.657-11.292,0.76c-0.941-0.687-1.917-1.331-2.807-2.078
		c-8.253-6.931-8.627-10.521-1.449-18.577c9.304-10.442,18.79-20.723,28.544-31.453c-8.338-9.19-16.584-18.274-24.822-27.364
		c-2.014-2.222-4.121-4.372-5.977-6.719c-3.917-4.953-3.767-8.14,0.383-12.816c0.663-0.747,1.365-1.463,2.09-2.148
		c7.46-7.05,11.577-6.951,18.351,0.699c8.933,10.089,17.754,20.277,27.006,30.86c7.562-8.651,14.842-17.037,22.193-25.36
		c2.751-3.116,5.532-6.23,8.548-9.082c3.04-2.875,6.585-3.125,9.991-0.557c4.307,3.246,9.847,5.901,8.963,12.592
		c-0.342,2.588-1.631,5.428-3.355,7.392c-9.542,10.872-19.35,21.51-29.308,32.495c8.875,9.769,17.599,19.343,26.283,28.953
		c1.783,1.974,3.686,3.917,5.059,6.165c2.366,3.874,2.473,7.878-0.72,11.49c-1.208,1.367-2.527,2.664-3.934,3.827
		c-6.275,5.19-10.385,4.979-15.869-1.169c-8.316-9.322-16.454-18.804-24.679-28.208C159.773,91.135,158.732,90.082,157.478,88.739z"
		/>
	<path fill-rule="evenodd" clip-rule="evenodd" fill="#FFFFFF" d="M0.492,55.474c0-9.162-0.037-18.325,0.013-27.487
		c0.03-5.48,1.825-7.391,7.325-8.087c14.013-1.773,17.111,0.935,17.118,14.984c0.006,12.827-0.067,25.655,0.048,38.481
		c0.03,3.307,0.288,6.69,1.042,9.896c2.843,12.086,9.612,17.467,21.027,17.078c9.984-0.341,17.219-7.043,18.817-18.553
		c0.955-6.882,0.8-13.936,0.893-20.916c0.138-10.326-0.035-20.657,0.092-30.984c0.091-7.364,2.147-9.47,9.375-10.139
		c1.485-0.137,2.996-0.195,4.482-0.099c8.642,0.564,10.888,2.756,10.953,11.379c0.116,15.325,0.258,30.656-0.028,45.977
		c-0.434,23.207-14.614,42.137-35.055,47.386C28.698,131.553,0.675,109.87,0.5,80.962C0.449,72.466,0.493,63.97,0.492,55.474z"/>
</g>
</svg>
