<svg xmlns="http://www.w3.org/2000/svg" width="612" height="140" viewBox="0 0 612 140"><switch><g><g fill="#BED12A"><path d="M615.092 5.286c.011-3.501-.59-4.396-4.301-4.392C484.194 1.021 357.597 1 231 1c-1.248 1.957-1.013 4.158-1.013 6.312V134.69c0 2.152-.235 4.354 1.013 6.311 126.597 0 253.194-.021 379.791.105 3.71.004 4.312-.891 4.301-4.392-.14-43.809-.14-87.618 0-131.428zM321.988 124.131c-18.972.653-37.958.726-56.929-.05-6.509-.266-8.235-2.533-8.236-9.193-.003-14.327-.001-28.654 0-42.982 0-14.327.145-28.657-.077-42.981-.08-5.175 2.05-7.718 7.003-8.435 2.49-.36 4.953-.631 7.456-.321 7.602.939 9.761 3.27 9.779 11.048.05 22.491.124 44.983-.084 67.473-.037 3.969 1.045 4.966 4.926 4.914 12.152-.163 24.316-.113 36.462.281 6.643.216 7.827 2.227 7.805 10.481-.021 7.481-1.413 9.534-8.105 9.765zm49.823-10.305c-.026 7.328-2.39 9.801-9.736 10.34a35.964 35.964 0 0 1-5.453-.009c-7.134-.565-9.321-2.738-9.675-9.972-.227-4.654-.118-9.327-.12-13.992-.009-22.497-.019-44.994.009-67.492.005-4.341-.354-9.214 4.578-11.206 5.744-2.318 11.794-2.418 17.341.843 3.147 1.851 3.058 5.309 3.062 8.498.019 13.832.008 27.664.008 41.495-.001 13.832.033 27.664-.014 41.495zm120.513-76.779c-5.728 11.786-11.531 23.536-17.318 35.294-7.108 14.44-14.26 28.86-21.328 43.32-2.637 5.393-6.508 8.563-12.823 8.567-6.213.005-10.307-2.768-12.998-8.254-12.779-26.06-25.658-52.07-38.441-78.128-1.902-3.878-4.027-7.841-.173-11.951 3.918-4.179 13.268-7.643 17.228-5.82 3.229 1.487 4.357 4.891 5.739 7.89 7.631 16.567 15.207 33.16 22.811 49.74 1.729 3.768 3.492 7.52 5.713 12.297 7.063-15.467 13.732-30.055 20.387-44.65 3.024-6.633 6.108-13.24 8.992-19.933 1.809-4.2 4.588-6.147 9.304-5.653 5.269.552 9.536 2.943 13.029 6.62 3.214 3.385 1.575 7.17-.122 10.661zm96.567 84.082c-1.292 2.418-3.849 2.95-6.463 3.023-20.974.586-41.952.641-62.92-.023-7.756-.246-9.946-2.978-9.986-11.149-.067-13.491-.019-26.983-.018-40.476.002-13.325-.03-26.651.012-39.977.03-9.441 2.643-12.363 12.132-12.457 19.486-.192 38.977-.124 58.464-.017 4.229.023 8.748.565 9.903 5.726 1.312 5.856 2.273 11.939-2.057 17.104-1.846 2.2-4.768 2.112-7.455 2.117-13.824.028-27.652.203-41.473-.033-3.834-.065-4.719 1.016-4.633 4.722.235 10.146.053 10.13 10.104 10.156 7.161.019 14.324-.01 21.481.184 5.977.162 8.347 2.463 9.069 8.396.201 1.647.284 3.326.229 4.983-.276 8.472-3.141 11.365-11.603 11.475-8.327.107-16.659.139-24.983-.034-3.048-.063-4.342.46-4.305 4.003.107 10.455-.077 10.457 10.307 10.457 11.326.001 22.654-.096 33.979.059 4.086.055 8.924-.334 10.812 4.418 2.271 5.707 2.405 11.722-.596 17.343z"/><path fill-rule="evenodd" clip-rule="evenodd" d="M157.542 88.774c-9.041 10.362-17.663 20.297-26.344 30.181-7.901 8.996-19.987 6.492-23.985-4.997-1.415-4.065 1.02-7.108 3.439-9.84 7.511-8.479 15.164-16.83 22.785-25.21 6.982-7.677 7.014-7.682.019-15.43-7.478-8.284-15.042-16.492-22.473-24.818-2.774-3.108-5.912-6.503-3.212-11.019 3.216-5.38 7.424-10.055 14.159-10.612 3.578-.296 5.955 2.648 8.155 5.147 8.366 9.499 16.753 18.983 24.94 28.636 2.069 2.439 3.024 2.448 5.116-.027 8.168-9.668 16.52-19.185 24.974-28.605 2.974-3.312 6.133-6.881 11.519-4.505 6.751 2.978 11.232 9.022 10.958 14.537-.148 2.979-1.985 4.879-3.741 6.829-8.918 9.902-17.832 19.81-26.914 29.562-1.879 2.019-1.954 3.065-.025 5.129a1565.574 1565.574 0 0 1 26.245 28.818c7.763 8.733 3.75 20.015-7.892 22.606-4.711 1.049-7.53-1.943-10.182-4.938-8.39-9.478-16.663-19.06-24.984-28.598-.759-.869-1.542-1.717-2.557-2.846zM.377 55.501c0-9.162-.024-18.324.009-27.485.019-5.482 1.779-7.429 7.229-8.185a57.48 57.48 0 0 1 1.488-.179c12.789-1.399 15.904 1.392 15.919 14.325.016 13.16.032 26.319-.018 39.479-.012 3.188.263 6.326.975 9.417 2.829 12.278 9.605 17.791 21.278 17.367 9.869-.358 16.764-7.279 18.71-18.711 1.353-7.949.587-15.957.707-23.938.143-9.493-.042-18.991.138-28.482.123-6.5 2.193-8.583 8.545-9.369 1.32-.164 2.653-.347 3.978-.327 9.846.145 12.429 2.686 12.467 12.528.057 14.991.191 29.986-.046 44.975-.369 23.248-14.733 42.432-35.329 47.646C28.635 131.598.473 109.709.383 80.988.355 72.492.378 63.996.377 55.501z"/></g></g></switch></svg>